<svg width="96" height="115" viewBox="0 0 96 115" fill="none" xmlns="http://www.w3.org/2000/svg">
<path opacity="0.7" fill-rule="evenodd" clip-rule="evenodd" d="M21.6768 24.7725C27.8639 9.41906 42.5849 -1.58302 57.2949 0.186845C75.2749 2.35015 88.0494 18.7901 86.1454 33.826C84.4041 47.5756 73.3514 54.6178 61.7421 57.4368C44.3065 61.6707 42.7352 66.2421 32.6692 70.6413C23.9617 74.4467 19.3667 65.3748 17.9887 57.2037C16.6141 49.0528 15.4897 40.1259 21.6768 24.7725Z" fill="#0085B2"/>
<path opacity="0.7" fill-rule="evenodd" clip-rule="evenodd" d="M94.6262 45.7099C95.1619 57.6404 69.3883 68.9242 44.0895 61.6041C19.5324 54.4992 5.17103 39.175 9.32061 24.0184C18.5491 -9.69096 93.2783 15.7078 94.6262 45.7099Z" fill="#FF5B10"/>
<path opacity="0.7" fill-rule="evenodd" clip-rule="evenodd" d="M44.398 71.5354C30.7537 71.5339 22.5663 54.4528 24.8322 33.8785C26.9934 14.2557 41.5194 0.380463 56.5492 0.380463C69.2392 0.380463 88.8703 15.8549 72.6446 51.3952C66.5993 64.6361 55.7752 71.5369 44.398 71.5354Z" fill="#FFCB00"/>
<path d="M0.62126 99.5313C0.920643 99.1146 1.18713 98.6341 1.48322 98.2174C1.77931 97.8006 2.24648 97.6701 2.61166 97.9597C2.81235 98.1219 5.36533 100.187 7.91831 100.187C10.2213 100.187 11.6655 98.8378 11.6655 97.2025C11.6655 95.2935 9.93832 94.0623 6.65827 92.7483C3.27623 91.3548 0.62126 89.6559 0.62126 85.9367C0.62126 83.4328 2.61166 80.0031 7.88541 80.0031C10.0787 80.0454 12.2109 80.7091 14.0178 81.912C14.1986 82.0267 14.3226 82.2084 14.3605 82.4143C14.3985 82.6201 14.3471 82.832 14.2185 83.0001C13.9487 83.3692 13.6526 83.8209 13.3894 84.2027C13.1263 84.5845 12.692 84.8136 12.2281 84.5209C11.9945 84.3936 9.67513 82.9301 7.75052 82.9301C4.96725 82.9301 4.0033 84.6291 4.0033 85.8158C4.0033 87.6451 5.46403 88.7682 8.2144 89.8563C12.0636 91.3643 15.3437 93.1269 15.3437 97.0402C15.3437 100.374 12.261 103.085 7.95121 103.085C5.33341 103.105 2.7981 102.2 0.821945 100.54C0.522562 100.301 0.292268 100.075 0.62126 99.5313Z" fill="#231F20"/>
<path d="M29.8645 80.0031C33.2136 80.0031 35.635 81.0944 37.8919 82.9842C38.0294 83.0937 38.1118 83.255 38.1181 83.4272C38.1244 83.5994 38.054 83.766 37.9248 83.8846L36.464 85.3258C36.2337 85.6153 35.9344 85.6153 35.635 85.3258C34.0433 83.9823 32.013 83.2242 29.9007 83.1846C25.1566 83.1846 21.5771 87.0311 21.5771 91.5202C21.5771 96.0094 25.1961 99.8272 29.9335 99.8272C32.3516 99.8272 34.0427 98.895 35.635 97.7115C35.8545 97.5101 36.1937 97.4952 36.4311 97.6765L37.9642 99.1146C38.2013 99.3627 38.1866 99.7493 37.9314 99.9799C35.7745 102.005 32.8772 103.124 29.871 103.091C25.559 103.162 21.5428 100.978 19.3649 97.3782C17.1869 93.7785 17.1856 89.3228 19.3615 85.722C21.5375 82.1212 25.5524 79.935 29.8645 80.0031Z" fill="#231F20"/>
<path d="M50.4895 86.3662H50.3251C50.3251 86.3662 43.6268 100.826 42.9622 102.302C42.8283 102.594 42.5292 102.783 42.1989 102.783H40.1098C39.8958 102.8 39.6895 102.702 39.5721 102.528C39.4548 102.354 39.4452 102.132 39.5473 101.949L49.7263 80.3563C49.8488 80.1608 50.0575 80.0306 50.2922 80.0031H50.6211C50.8558 80.0306 51.0645 80.1608 51.187 80.3563L61.3002 101.937C61.4027 102.12 61.3929 102.343 61.2747 102.517C61.1565 102.691 60.9489 102.788 60.7344 102.77H58.6453C58.3109 102.787 58.0036 102.593 57.8853 102.29L50.4895 86.3662Z" fill="#231F20"/>
<path d="M64.2848 80.9321C64.2848 80.596 64.5656 80.323 64.9132 80.3212H67.101C67.4429 80.3342 67.7175 80.5983 67.7326 80.9289V99.789H76.7174C76.8843 99.7882 77.0447 99.8519 77.1627 99.9661C77.2807 100.08 77.3467 100.235 77.3458 100.397V102.159C77.3467 102.321 77.2808 102.476 77.1629 102.591C77.045 102.706 76.8846 102.77 76.7174 102.77H64.9132C64.5656 102.768 64.2848 102.495 64.2848 102.159V80.9321Z" fill="#231F20"/>
<path d="M80.8263 80.9321C80.8263 80.5947 81.1091 80.3212 81.458 80.3212H94.7196C95.0672 80.3212 95.3495 80.5928 95.3513 80.9289V82.7297C95.3495 83.0658 95.0672 83.3373 94.7196 83.3373H84.2412V89.8658H93.0944C93.4475 89.8795 93.7264 90.1604 93.7261 90.5021V92.2838C93.7261 92.4458 93.6595 92.6012 93.5411 92.7157C93.4226 92.8303 93.2619 92.8946 93.0944 92.8946H84.2412V99.789H94.7196C94.8869 99.7882 95.0475 99.8518 95.1661 99.9659C95.2846 100.08 95.3513 100.235 95.3513 100.397V102.159C95.3513 102.497 95.0685 102.77 94.7196 102.77H81.458C81.1091 102.77 80.8263 102.497 80.8263 102.159L80.8263 80.9321Z" fill="#231F20"/>
<path d="M0.541437 108.535C0.544828 108.443 0.620943 108.37 0.715803 108.366H1.57118C1.66803 108.366 1.74704 108.441 1.74884 108.535V110.896H4.73609V108.535C4.73788 108.441 4.8169 108.366 4.91374 108.366H5.75925C5.85411 108.37 5.93023 108.443 5.93362 108.535V114.434C5.93023 114.525 5.85411 114.599 5.75925 114.602H4.92361C4.82731 114.602 4.74925 114.527 4.74925 114.434V111.974H1.74555V114.434C1.74555 114.527 1.66748 114.602 1.57118 114.602H0.715803C0.620336 114.599 0.543208 114.526 0.538147 114.434L0.541437 108.535Z" fill="#231F20"/>
<path d="M19.9695 108.538C19.9695 108.445 20.047 108.368 20.1438 108.366H23.8944C23.9406 108.366 23.985 108.384 24.0177 108.416C24.0504 108.447 24.0687 108.49 24.0687 108.535V109.273C24.0687 109.367 23.9912 109.443 23.8944 109.445H21.167V110.908H23.4403C23.5358 110.912 23.6129 110.985 23.618 111.077V111.818C23.618 111.864 23.5993 111.908 23.566 111.94C23.5327 111.972 23.4875 111.99 23.4403 111.99H21.167V113.546H23.8944C23.9907 113.546 24.0687 113.621 24.0687 113.715V114.443C24.0687 114.538 23.9892 114.615 23.8911 114.615H20.1438C20.0976 114.615 20.0533 114.597 20.0206 114.566C19.9879 114.534 19.9695 114.491 19.9695 114.446V108.538Z" fill="#231F20"/>
<path fill-rule="evenodd" clip-rule="evenodd" d="M39.7536 108.37L36.8881 114.364C36.8622 114.415 36.8662 114.475 36.8988 114.522C36.9313 114.569 36.9874 114.596 37.046 114.593H37.8488C37.9677 114.594 38.0746 114.523 38.1152 114.415L38.566 113.46H41.3196L41.7703 114.415C41.8067 114.527 41.9183 114.601 42.0401 114.593H42.8396C42.8989 114.598 42.9566 114.572 42.9897 114.524C43.0228 114.476 43.0258 114.414 42.9975 114.364L40.1616 108.37C40.1362 108.307 40.0727 108.268 40.0036 108.271H39.9115C39.8433 108.27 39.7812 108.309 39.7536 108.37ZM39.9371 110.517L40.8681 112.455L39.0324 112.477L39.9371 110.517Z" fill="#231F20"/>
<path d="M56.1809 108.542C56.1809 108.448 56.259 108.373 56.3553 108.373H57.2041C57.2989 108.376 57.375 108.45 57.3784 108.542V113.54H59.7274C59.8237 113.54 59.9018 113.615 59.9018 113.708V114.44C59.9018 114.533 59.8237 114.609 59.7274 114.609H56.3553C56.2584 114.609 56.1794 114.534 56.1776 114.44L56.1809 108.542Z" fill="#231F20"/>
<path d="M73.6735 109.442H72.2621C72.1658 109.442 72.0877 109.366 72.0877 109.273V108.545C72.0877 108.451 72.1658 108.376 72.2621 108.376H76.2889C76.3852 108.376 76.4633 108.451 76.4633 108.545V109.273C76.4633 109.367 76.3858 109.443 76.2889 109.445H74.8809V114.44C74.8791 114.532 74.8021 114.607 74.7065 114.609H73.8511C73.7562 114.605 73.6801 114.532 73.6767 114.44L73.6735 109.442Z" fill="#231F20"/>
<path d="M89.7646 108.545C89.7697 108.452 89.8468 108.379 89.9423 108.376H90.7977C90.894 108.376 90.972 108.451 90.972 108.545V110.905H93.9757V108.545C93.9757 108.451 94.0538 108.376 94.1501 108.376H94.9989C95.0938 108.379 95.1699 108.453 95.1733 108.545V114.443C95.1699 114.535 95.0938 114.608 94.9989 114.612H94.1501C94.0538 114.612 93.9757 114.536 93.9757 114.443V111.984H90.972V114.443C90.972 114.536 90.894 114.612 90.7977 114.612H89.9456C89.8507 114.608 89.7746 114.535 89.7712 114.443L89.7646 108.545Z" fill="#231F20"/>
<path fill-rule="evenodd" clip-rule="evenodd" d="M29.4367 36.1256C29.4367 24.1756 39.1241 14.4882 51.0742 14.4882C56.8128 14.4882 62.3163 16.7678 66.3741 20.8257C70.432 24.8835 72.7116 30.387 72.7116 36.1256C72.7116 48.0757 63.0242 57.7631 51.0742 57.7631C39.1241 57.7631 29.4367 48.0757 29.4367 36.1256ZM58.5544 46.2331H60.455C60.6493 46.2488 60.8367 46.1572 60.9437 45.9942C61.0507 45.8312 61.0603 45.6229 60.9687 45.4508L51.766 25.1568C51.6565 24.9733 51.4684 24.8508 51.2563 24.8249H50.9521C50.74 24.8508 50.5518 24.9733 50.4423 25.1568L41.1725 45.4429C41.0736 45.6152 41.0795 45.8284 41.1878 45.995C41.2961 46.1616 41.4885 46.2536 41.6862 46.2331H43.5828C43.882 46.2324 44.1528 46.056 44.2743 45.7827C44.8986 44.3958 50.9916 30.7914 50.9916 30.7914H51.1417L57.859 45.7827C57.9694 46.0671 58.2497 46.2487 58.5544 46.2331Z" fill="#231F20"/>
</svg>
